/vscmnt/brussel_pixiu_data/_data_brussel/112/vsc11236/PredSimResults/SUBJ07mtu3D/worker5.mot
version=1
nRows=10
nColumns=50
inDegrees=yes
endheader
                time	         pelvis_tilt	         pelvis_list	     pelvis_rotation	           pelvis_tx	           pelvis_ty	           pelvis_tz	       hip_flexion_r	     hip_adduction_r	      hip_rotation_r	        knee_angle_r	       ankle_angle_r	         mtp_angle_r	       hip_flexion_l	     hip_adduction_l	      hip_rotation_l	        knee_angle_l	       ankle_angle_l	         mtp_angle_l	    lumbar_extension	      lumbar_bending	     lumbar_rotation	 ercspn_r/activation	 intobl_r/activation	 extobl_r/activation	    abd_r/activation	    add_r/activation	hamstrings_r/activation	bifemsh_r/activation	glut_max_r/activation	iliopsoas_r/activation	rect_fem_r/activation	  vasti_r/activation	gastroc_r/activation	 soleus_r/activation	tib_ant_r/activation	 ercspn_l/activation	 intobl_l/activation	 extobl_l/activation	    abd_l/activation	    add_l/activation	hamstrings_l/activation	bifemsh_l/activation	glut_max_l/activation	iliopsoas_l/activation	rect_fem_l/activation	  vasti_l/activation	gastroc_l/activation	 soleus_l/activation	tib_ant_l/activation	
          0.00000000	         -4.32240115	          0.50428022	          8.71906561	          0.00000000	          0.85145729	         -0.01334581	         29.16196669	         -2.52811571	         -3.95417824	         -6.22842579	          0.67391572	          0.28085770	        -14.70784952	          1.20376735	          3.71658589	         -6.65083770	          7.41280076	         26.62708061	        -11.07263113	         -2.04267223	         -2.59360376	          0.10274910	          0.16468270	          0.01000007	          0.03651930	          0.11137228	          0.03714198	          0.11695554	          0.07786070	          0.01893959	          0.01632579	          0.01000007	          0.01000105	          0.01386524	          0.44595137	          0.10397280	          0.01000001	          0.01000002	          0.04093824	          0.01000009	          0.01384967	          0.13333172	          0.01632631	          0.10515702	          0.01177615	          0.01000032	          0.10392676	          0.23186846	          0.01678511	
          0.01065034	         -4.34331066	          0.58176638	          8.70080444	          0.01511511	          0.85013996	         -0.01354428	         28.86738381	         -2.42174643	         -3.61784330	         -7.54609948	          0.47321562	          0.26233848	        -15.16203322	          1.21802913	          3.33391782	         -7.61862672	          6.52903357	         28.18353289	        -10.93825427	         -1.62281971	         -2.75321285	          0.09508115	          0.13985751	          0.01000003	          0.06397664	          0.09849304	          0.04915012	          0.13497784	          0.10440403	          0.01608451	          0.01386473	          0.01000000	          0.01177550	          0.01177511	          0.48518040	          0.12098308	          0.01000001	          0.01000006	          0.03476692	          0.01081682	          0.01176207	          0.11323236	          0.01386517	          0.08930492	          0.01000098	          0.01000003	          0.08826010	          0.20147111	          0.01425480	
          0.02130068	         -4.36149841	          0.65100468	          8.63027571	          0.03029234	          0.84909651	         -0.01363999	         28.54760304	         -2.32659573	         -3.33075114	         -8.78307163	          0.13444527	          0.24945766	        -15.44007411	          1.23606663	          2.92153998	         -8.90364179	          5.55809583	         29.69575491	        -10.80748942	         -1.19195259	         -2.89973610	          0.11519647	          0.11877439	          0.01000002	          0.12063247	          0.11233318	          0.04641941	          0.11463041	          0.11479231	          0.01365984	          0.01177467	          0.01000000	          0.01000039	          0.01000005	          0.51364562	          0.13438892	          0.01000000	          0.01000003	          0.02952591	          0.01000003	          0.01000053	          0.09616291	          0.01177505	          0.07584248	          0.01000064	          0.01000025	          0.07495514	          0.17109992	          0.01210593	
          0.03195101	         -4.37727667	          0.71746596	          8.51361328	          0.04537759	          0.84846297	         -0.01362905	         28.27420804	         -2.22791680	         -3.10773246	        -10.09604937	         -0.10186823	          0.22786191	        -15.46206286	          1.26428544	          2.47977092	        -10.62332484	          4.48491342	         31.12510005	        -10.69681995	         -0.75766675	         -3.03178944	          0.12509016	          0.10086950	          0.01000002	          0.16802704	          0.13480607	          0.04479829	          0.09735024	          0.14213217	          0.01160068	          0.01000003	          0.01000001	          0.01000009	          0.01000003	          0.52411928	          0.17716122	          0.01000000	          0.01000002	          0.02507496	          0.01417187	          0.01405423	          0.08166664	          0.01000008	          0.06440946	          0.01000042	          0.01386502	          0.06365587	          0.14530710	          0.01028100	
          0.04260135	         -4.39041727	          0.78069485	          8.35724167	          0.06027176	          0.84836802	         -0.01351557	         28.07135060	         -2.12379052	         -2.93138512	        -11.54878410	         -0.09647985	          0.20750518	        -15.16871706	          1.29997582	          2.00434898	        -12.85718383	          3.27786971	         32.39654197	        -10.61100957	         -0.32369954	         -3.15087814	          0.13371325	          0.08566371	          0.01000002	          0.20390642	          0.16042015	          0.04197282	          0.08267500	          0.16495344	          0.01000003	          0.01000006	          0.01709835	          0.01000012	          0.01000008	          0.51390124	          0.21452765	          0.01000000	          0.01000002	          0.02129498	          0.03041543	          0.01195232	          0.06935564	          0.01000001	          0.05469993	          0.01000015	          0.01177495	          0.05405993	          0.12340247	          0.01000000	
          0.05325169	         -4.40087415	          0.84463561	          8.16436295	          0.07491180	          0.84890279	         -0.01330398	         27.91177361	         -2.01499947	         -2.78485595	        -13.07842828	          0.12372575	          0.19102197	        -14.49743327	          1.34334172	          1.48443085	        -15.69706845	          1.92129476	         33.36578551	        -10.55033581	          0.10093316	         -3.25717883	          0.14466256	          0.07275015	          0.01000002	          0.22223008	          0.18167318	          0.04093031	          0.07021201	          0.17528268	          0.01000005	          0.01000006	          0.02757698	          0.01000008	          0.01000003	          0.48822159	          0.23359457	          0.01000001	          0.01000002	          0.01808482	          0.05103295	          0.01015191	          0.05890049	          0.01000000	          0.04645408	          0.01000007	          0.01000002	          0.04591055	          0.10479990	          0.01000000	
          0.06390203	         -4.40846183	          0.91335696	          7.93820271	          0.08931198	          0.85005735	         -0.01300632	         27.72393012	         -1.89980223	         -2.64379233	        -14.54886571	          0.50729739	          0.18958104	        -13.41372648	          1.38872471	          0.91767917	        -19.18564257	          0.38028256	         33.86793662	        -10.50585650	          0.50912948	         -3.34945595	          0.14190000	          0.06178327	          0.01000001	          0.22650085	          0.19459674	          0.04251899	          0.05962779	          0.17612275	          0.01000006	          0.01000008	          0.04338693	          0.01000017	          0.01000010	          0.45027313	          0.24878912	          0.01000000	          0.01000002	          0.01535859	          0.06766020	          0.01000102	          0.05002142	          0.01000000	          0.03945127	          0.01000004	          0.01000000	          0.03898967	          0.08900161	          0.01000004	
          0.07455236	         -4.41365027	          0.98722292	          7.67972073	          0.10350508	          0.85176095	         -0.01262574	         27.42342867	         -1.77152613	         -2.48110789	        -15.80085998	          1.00969770	          0.23603778	        -11.91138164	          1.42424759	          0.32128153	        -23.30788075	         -1.36342618	         33.66388775	        -10.46806078	          0.89642524	         -3.42555308	          0.12050900	          0.05246962	          0.01000001	          0.22679561	          0.19410068	          0.05061824	          0.05063912	          0.15817248	          0.01000005	          0.01000007	          0.07106478	          0.01000004	          0.01000001	          0.41176648	          0.24948932	          0.01000000	          0.01000001	          0.01304333	          0.08893902	          0.01000043	          0.04248084	          0.00999999	          0.03350411	          0.01000004	          0.00999999	          0.03311209	          0.07558487	          0.05546475	
          0.08520270	         -4.41804561	          1.06530086	          7.38969022	          0.11745015	          0.85388592	         -0.01216537	         26.96226516	         -1.62570968	         -2.26739715	        -16.72761677	          1.54686773	          0.35242798	         -9.99823502	          1.44229338	         -0.27426851	        -28.02695563	         -3.20219133	         32.35607626	        -10.44062981	          1.26020901	         -3.48360880	          0.10234261	          0.04455998	          0.01000004	          0.23351883	          0.17267806	          0.05937314	          0.04300547	          0.13432845	          0.01000005	          0.01000004	          0.07282615	          0.01000018	          0.01000007	          0.37107293	          0.24266757	          0.02417384	          0.01000001	          0.01107708	          0.07614885	          0.01631230	          0.03607699	          0.01000000	          0.02845347	          0.01000006	          0.01035014	          0.02812054	          0.06419067	          0.14423476	
          0.09585304	         -4.42301657	          1.13818084	          7.07993202	          0.13106695	          0.85623717	         -0.01164598	         26.37742635	         -1.46238822	         -2.00098973	        -17.37954919	          2.06840423	          0.54699311	         -7.74148408	          1.43372124	         -0.82448860	        -33.17686380	         -4.95609593	         29.68974300	        -10.43283132	          1.60778341	         -3.52518322	          0.08691476	          0.03784269	          0.01000003	          0.24583059	          0.14664735	          0.07053508	          0.03652257	          0.11408309	          0.01000002	          0.01000002	          0.09821111	          0.01000005	          0.01000002	          0.34235664	          0.23905934	          0.05720609	          0.01000005	          0.01000000	          0.06466963	          0.01385363	          0.03063850	          0.01000002	          0.02416420	          0.07488070	          0.01322611	          0.02388145	          0.05451411	          0.27692549	
